# xmcd CD database file
#
# Track frame offsets:
#	150
#	31900
#	72566
#	113095
#	156647
#	197112
#	234179
#	269845
#
# Disc length: 3929 seconds
#
# Revision: 0
# Processed by: cddbd v1.5.1PL2 Copyright (c) Steve Scherf et al.
# Submitted via: CDex 1.51
#
DISCID=740f5708
DTITLE=Andrew Hill - Time Lines
DYEAR=2005
DGENRE=Jazz
TTITLE0=Malachi
TTITLE1=Time Lines
TTITLE2=Ry Round 1
TTITLE3=For Emilio
TTITLE4=Whitsuntide
TTITLE5=Smooth
TTITLE6=Ry Round 2
TTITLE7=Malachi (Solo Piano Version)
EXTD=YEAR: 2005
EXTT0=
EXTT1=
EXTT2=
EXTT3=
EXTT4=
EXTT5=
EXTT6=
EXTT7=
PLAYORDER=
